<?xml version="1.0" encoding="utf-8"?>
<!-- Generator: Adobe Illustrator 17.0.0, SVG Export Plug-In . SVG Version: 6.00 Build 0)  -->
<!DOCTYPE svg PUBLIC "-//W3C//DTD SVG 1.1//EN" "http://www.w3.org/Graphics/SVG/1.1/DTD/svg11.dtd">
<svg version="1.1" id="Layer_1" xmlns="http://www.w3.org/2000/svg" xmlns:xlink="http://www.w3.org/1999/xlink" x="0px" y="0px"
	 width="800px" height="60px" viewBox="0 0 800 60" enable-background="new 0 0 800 60" xml:space="preserve">
<rect fill="#FFDE00" width="82" height="60"/>
<rect fill="#E52718" width="82" height="15.266"/>
<rect y="44.349" fill="#E52718" width="82" height="15.651"/>
<rect x="82" fill="#FFFFFF" width="82" height="60"/>
<rect x="82" fill="#2DB0F3" width="27.498" height="60"/>
<rect x="136.584" fill="#E52718" width="27.416" height="60"/>
<rect x="164" fill="#FFFFFF" width="82" height="60"/>
<rect x="164" fill="#6CC225" width="27.498" height="60"/>
<rect x="218.584" fill="#E52718" width="27.416" height="60"/>
<rect x="246" fill="#E52718" width="82" height="60"/>
<rect x="246" fill="#282828" width="82" height="20.015"/>
<rect x="246" y="39.77" fill="#FFDE00" width="82" height="20.23"/>
<rect x="328" fill="#6CC225" width="82" height="60"/>
<polygon fill="#FFDE00" points="406.358,29.974 368.959,52.252 331.559,29.974 368.959,7.697 "/>
<ellipse fill="#2DB0F3" cx="369" cy="29.934" rx="12.923" ry="12.776"/>
<rect x="410" fill="#FFFFFF" width="82" height="60"/>
<rect x="410.083" fill="#E52718" width="81.917" height="12.004"/>
<rect x="410.083" y="11.994" fill="#FFFFFF" width="81.917" height="12.004"/>
<rect x="410.083" y="23.987" fill="#E52718" width="81.917" height="12.004"/>
<rect x="410.083" y="35.959" fill="#FFFFFF" width="81.917" height="12.004"/>
<rect x="410.083" y="47.96" fill="#E52718" width="81.917" height="12.004"/>
<rect x="410" fill="#2DB0F3" width="41.206" height="36"/>
<polygon fill="#FFFFFF" points="418.159,3.978 419.178,6.019 421.456,6.346 419.807,7.935 420.196,10.178 418.159,9.119 
	416.121,10.178 416.51,7.935 414.862,6.346 417.14,6.019 "/>
<polygon fill="#FFFFFF" points="430.562,3.978 431.581,6.019 433.859,6.346 432.211,7.935 432.6,10.178 430.562,9.119 
	428.524,10.178 428.913,7.935 427.265,6.346 429.543,6.019 "/>
<polygon fill="#FFFFFF" points="442.965,3.978 443.984,6.019 446.262,6.346 444.614,7.935 445.003,10.178 442.965,9.119 
	440.927,10.178 441.317,7.935 439.668,6.346 441.946,6.019 "/>
<polygon fill="#FFFFFF" points="418.159,25.529 419.178,27.57 421.456,27.897 419.807,29.486 420.196,31.729 418.159,30.67 
	416.121,31.729 416.51,29.486 414.862,27.897 417.14,27.57 "/>
<polygon fill="#FFFFFF" points="430.562,25.529 431.581,27.57 433.859,27.897 432.211,29.486 432.6,31.729 430.562,30.67 
	428.524,31.729 428.913,29.486 427.265,27.897 429.543,27.57 "/>
<polygon fill="#FFFFFF" points="442.965,25.529 443.984,27.57 446.262,27.897 444.614,29.486 445.003,31.729 442.965,30.67 
	440.927,31.729 441.317,29.486 439.668,27.897 441.946,27.57 "/>
<polygon fill="#FFFFFF" points="425.095,14.753 426.114,16.794 428.392,17.122 426.744,18.71 427.133,20.953 425.095,19.894 
	423.057,20.953 423.447,18.71 421.798,17.122 424.076,16.794 "/>
<polygon fill="#FFFFFF" points="437.499,14.753 438.517,16.794 440.796,17.122 439.147,18.71 439.536,20.953 437.499,19.894 
	435.461,20.953 435.85,18.71 434.201,17.122 436.48,16.794 "/>
</svg>
